<mxfile host="app.diagrams.net" modified="2023-05-15T23:56:08.000Z" agent="Mozilla/5.0 (Windows NT 10.0; Win64; x64) AppleWebKit/537.36 (KHTML, like Gecko) Chrome/110.0.0.0 Safari/537.36" etag="rh_VVikECBTOHsP4KOCn" version="21.3.2" type="device">
  <diagram name="Página-1" id="tBsLYXvhua7krhZy3_EZ">
    <mxGraphModel dx="880" dy="484" grid="1" gridSize="10" guides="1" tooltips="1" connect="1" arrows="1" fold="1" page="1" pageScale="1" pageWidth="827" pageHeight="1169" math="0" shadow="0">
      <root>
        <mxCell id="0" />
        <mxCell id="1" parent="0" />
        <mxCell id="gTLsogeVvISidQ29SvgV-1" value="veiculo" style="swimlane;fontStyle=1;align=center;verticalAlign=top;childLayout=stackLayout;horizontal=1;startSize=26;horizontalStack=0;resizeParent=1;resizeParentMax=0;resizeLast=0;collapsible=1;marginBottom=0;whiteSpace=wrap;html=1;" vertex="1" parent="1">
          <mxGeometry x="290" y="210" width="160" height="200" as="geometry" />
        </mxCell>
        <mxCell id="gTLsogeVvISidQ29SvgV-2" value="+ marca: String&lt;br&gt;+modelo:String&lt;br&gt;+ versao :String&lt;br&gt;+ ano: String&lt;br&gt;+ portas:int" style="text;strokeColor=none;fillColor=none;align=left;verticalAlign=top;spacingLeft=4;spacingRight=4;overflow=hidden;rotatable=0;points=[[0,0.5],[1,0.5]];portConstraint=eastwest;whiteSpace=wrap;html=1;" vertex="1" parent="gTLsogeVvISidQ29SvgV-1">
          <mxGeometry y="26" width="160" height="84" as="geometry" />
        </mxCell>
        <mxCell id="gTLsogeVvISidQ29SvgV-3" value="" style="line;strokeWidth=1;fillColor=none;align=left;verticalAlign=middle;spacingTop=-1;spacingLeft=3;spacingRight=3;rotatable=0;labelPosition=right;points=[];portConstraint=eastwest;strokeColor=inherit;" vertex="1" parent="gTLsogeVvISidQ29SvgV-1">
          <mxGeometry y="110" width="160" height="8" as="geometry" />
        </mxCell>
        <mxCell id="gTLsogeVvISidQ29SvgV-4" value="+getMarca():String&lt;br&gt;+getModelo():String&lt;br&gt;+getVersao():String&lt;br&gt;+getAno():String&lt;br&gt;+getPortas():int" style="text;strokeColor=none;fillColor=none;align=left;verticalAlign=top;spacingLeft=4;spacingRight=4;overflow=hidden;rotatable=0;points=[[0,0.5],[1,0.5]];portConstraint=eastwest;whiteSpace=wrap;html=1;" vertex="1" parent="gTLsogeVvISidQ29SvgV-1">
          <mxGeometry y="118" width="160" height="82" as="geometry" />
        </mxCell>
        <mxCell id="gTLsogeVvISidQ29SvgV-9" style="rounded=0;orthogonalLoop=1;jettySize=auto;html=1;exitX=0.5;exitY=0;exitDx=0;exitDy=0;entryX=0.556;entryY=1.024;entryDx=0;entryDy=0;entryPerimeter=0;" edge="1" parent="1" source="gTLsogeVvISidQ29SvgV-5" target="gTLsogeVvISidQ29SvgV-4">
          <mxGeometry relative="1" as="geometry" />
        </mxCell>
        <mxCell id="gTLsogeVvISidQ29SvgV-5" value="Estoque" style="swimlane;fontStyle=1;align=center;verticalAlign=top;childLayout=stackLayout;horizontal=1;startSize=26;horizontalStack=0;resizeParent=1;resizeParentMax=0;resizeLast=0;collapsible=1;marginBottom=0;whiteSpace=wrap;html=1;" vertex="1" parent="1">
          <mxGeometry x="290" y="490" width="160" height="180" as="geometry" />
        </mxCell>
        <mxCell id="gTLsogeVvISidQ29SvgV-6" value="+ tipo: String&lt;br&gt;+estadoCidade:String&lt;br&gt;+necessidade:String&lt;br&gt;+url:String" style="text;strokeColor=none;fillColor=none;align=left;verticalAlign=top;spacingLeft=4;spacingRight=4;overflow=hidden;rotatable=0;points=[[0,0.5],[1,0.5]];portConstraint=eastwest;whiteSpace=wrap;html=1;" vertex="1" parent="gTLsogeVvISidQ29SvgV-5">
          <mxGeometry y="26" width="160" height="74" as="geometry" />
        </mxCell>
        <mxCell id="gTLsogeVvISidQ29SvgV-7" value="" style="line;strokeWidth=1;fillColor=none;align=left;verticalAlign=middle;spacingTop=-1;spacingLeft=3;spacingRight=3;rotatable=0;labelPosition=right;points=[];portConstraint=eastwest;strokeColor=inherit;" vertex="1" parent="gTLsogeVvISidQ29SvgV-5">
          <mxGeometry y="100" width="160" height="8" as="geometry" />
        </mxCell>
        <mxCell id="gTLsogeVvISidQ29SvgV-8" value="+getTipo()::String&lt;br&gt;+getEstadoCidade():String&lt;br&gt;+getNecessidade():String&lt;br&gt;+getUrl():String" style="text;strokeColor=none;fillColor=none;align=left;verticalAlign=top;spacingLeft=4;spacingRight=4;overflow=hidden;rotatable=0;points=[[0,0.5],[1,0.5]];portConstraint=eastwest;whiteSpace=wrap;html=1;" vertex="1" parent="gTLsogeVvISidQ29SvgV-5">
          <mxGeometry y="108" width="160" height="72" as="geometry" />
        </mxCell>
        <mxCell id="gTLsogeVvISidQ29SvgV-10" style="rounded=0;orthogonalLoop=1;jettySize=auto;html=1;exitX=0.069;exitY=1.012;exitDx=0;exitDy=0;exitPerimeter=0;entryX=0.081;entryY=0.017;entryDx=0;entryDy=0;entryPerimeter=0;" edge="1" parent="1" source="gTLsogeVvISidQ29SvgV-4" target="gTLsogeVvISidQ29SvgV-5">
          <mxGeometry relative="1" as="geometry">
            <mxPoint x="310" y="480" as="targetPoint" />
            <Array as="points">
              <mxPoint x="300" y="450" />
            </Array>
          </mxGeometry>
        </mxCell>
        <mxCell id="gTLsogeVvISidQ29SvgV-11" value="1" style="text;html=1;align=center;verticalAlign=middle;resizable=0;points=[];autosize=1;strokeColor=none;fillColor=none;" vertex="1" parent="1">
          <mxGeometry x="280" y="410" width="30" height="30" as="geometry" />
        </mxCell>
        <mxCell id="gTLsogeVvISidQ29SvgV-12" value="0..1" style="text;html=1;align=center;verticalAlign=middle;resizable=0;points=[];autosize=1;strokeColor=none;fillColor=none;" vertex="1" parent="1">
          <mxGeometry x="270" y="460" width="40" height="30" as="geometry" />
        </mxCell>
        <mxCell id="gTLsogeVvISidQ29SvgV-13" value="1" style="text;html=1;align=center;verticalAlign=middle;resizable=0;points=[];autosize=1;strokeColor=none;fillColor=none;" vertex="1" parent="1">
          <mxGeometry x="350" y="448" width="30" height="30" as="geometry" />
        </mxCell>
        <mxCell id="gTLsogeVvISidQ29SvgV-14" value="*" style="text;html=1;align=center;verticalAlign=middle;resizable=0;points=[];autosize=1;strokeColor=none;fillColor=none;" vertex="1" parent="1">
          <mxGeometry x="355" y="408" width="30" height="30" as="geometry" />
        </mxCell>
        <mxCell id="gTLsogeVvISidQ29SvgV-15" value="Anuncio" style="swimlane;fontStyle=1;align=center;verticalAlign=top;childLayout=stackLayout;horizontal=1;startSize=26;horizontalStack=0;resizeParent=1;resizeParentMax=0;resizeLast=0;collapsible=1;marginBottom=0;whiteSpace=wrap;html=1;" vertex="1" parent="1">
          <mxGeometry x="290" y="20" width="160" height="108" as="geometry" />
        </mxCell>
        <mxCell id="gTLsogeVvISidQ29SvgV-16" value="+ Titulo:String&lt;br&gt;+ListadeCarros:list&amp;lt;carros&amp;gt;&lt;br&gt;+DatadeCriação:Date" style="text;strokeColor=none;fillColor=none;align=left;verticalAlign=top;spacingLeft=4;spacingRight=4;overflow=hidden;rotatable=0;points=[[0,0.5],[1,0.5]];portConstraint=eastwest;whiteSpace=wrap;html=1;" vertex="1" parent="gTLsogeVvISidQ29SvgV-15">
          <mxGeometry y="26" width="160" height="50" as="geometry" />
        </mxCell>
        <mxCell id="gTLsogeVvISidQ29SvgV-17" value="" style="line;strokeWidth=1;fillColor=none;align=left;verticalAlign=middle;spacingTop=-1;spacingLeft=3;spacingRight=3;rotatable=0;labelPosition=right;points=[];portConstraint=eastwest;strokeColor=inherit;" vertex="1" parent="gTLsogeVvISidQ29SvgV-15">
          <mxGeometry y="76" width="160" height="8" as="geometry" />
        </mxCell>
        <mxCell id="gTLsogeVvISidQ29SvgV-18" value="+ ExibirDetalhes():Void" style="text;strokeColor=none;fillColor=none;align=left;verticalAlign=top;spacingLeft=4;spacingRight=4;overflow=hidden;rotatable=0;points=[[0,0.5],[1,0.5]];portConstraint=eastwest;whiteSpace=wrap;html=1;" vertex="1" parent="gTLsogeVvISidQ29SvgV-15">
          <mxGeometry y="84" width="160" height="24" as="geometry" />
        </mxCell>
        <mxCell id="gTLsogeVvISidQ29SvgV-20" style="edgeStyle=orthogonalEdgeStyle;rounded=0;orthogonalLoop=1;jettySize=auto;html=1;entryX=0.55;entryY=-0.005;entryDx=0;entryDy=0;entryPerimeter=0;" edge="1" parent="1" source="gTLsogeVvISidQ29SvgV-18" target="gTLsogeVvISidQ29SvgV-1">
          <mxGeometry relative="1" as="geometry" />
        </mxCell>
        <mxCell id="gTLsogeVvISidQ29SvgV-22" value="*" style="text;html=1;align=center;verticalAlign=middle;resizable=0;points=[];autosize=1;strokeColor=none;fillColor=none;" vertex="1" parent="1">
          <mxGeometry x="260" y="100" width="30" height="30" as="geometry" />
        </mxCell>
        <mxCell id="gTLsogeVvISidQ29SvgV-23" value="*" style="text;html=1;align=center;verticalAlign=middle;resizable=0;points=[];autosize=1;strokeColor=none;fillColor=none;" vertex="1" parent="1">
          <mxGeometry x="355" y="170" width="30" height="30" as="geometry" />
        </mxCell>
        <mxCell id="gTLsogeVvISidQ29SvgV-24" value="Extends" style="endArrow=block;endSize=16;endFill=0;html=1;rounded=0;entryX=1.013;entryY=0.595;entryDx=0;entryDy=0;entryPerimeter=0;exitX=0;exitY=0.5;exitDx=0;exitDy=0;" edge="1" parent="1" source="gTLsogeVvISidQ29SvgV-26" target="gTLsogeVvISidQ29SvgV-2">
          <mxGeometry width="160" relative="1" as="geometry">
            <mxPoint x="550" y="250" as="sourcePoint" />
            <mxPoint x="580" y="320" as="targetPoint" />
          </mxGeometry>
        </mxCell>
        <mxCell id="gTLsogeVvISidQ29SvgV-25" value="Carros" style="swimlane;fontStyle=1;align=center;verticalAlign=top;childLayout=stackLayout;horizontal=1;startSize=26;horizontalStack=0;resizeParent=1;resizeParentMax=0;resizeLast=0;collapsible=1;marginBottom=0;whiteSpace=wrap;html=1;" vertex="1" parent="1">
          <mxGeometry x="580" y="300" width="160" height="86" as="geometry" />
        </mxCell>
        <mxCell id="gTLsogeVvISidQ29SvgV-26" value="+ field: type" style="text;strokeColor=none;fillColor=none;align=left;verticalAlign=top;spacingLeft=4;spacingRight=4;overflow=hidden;rotatable=0;points=[[0,0.5],[1,0.5]];portConstraint=eastwest;whiteSpace=wrap;html=1;" vertex="1" parent="gTLsogeVvISidQ29SvgV-25">
          <mxGeometry y="26" width="160" height="26" as="geometry" />
        </mxCell>
        <mxCell id="gTLsogeVvISidQ29SvgV-27" value="" style="line;strokeWidth=1;fillColor=none;align=left;verticalAlign=middle;spacingTop=-1;spacingLeft=3;spacingRight=3;rotatable=0;labelPosition=right;points=[];portConstraint=eastwest;strokeColor=inherit;" vertex="1" parent="gTLsogeVvISidQ29SvgV-25">
          <mxGeometry y="52" width="160" height="8" as="geometry" />
        </mxCell>
        <mxCell id="gTLsogeVvISidQ29SvgV-28" value="+ method(type): type" style="text;strokeColor=none;fillColor=none;align=left;verticalAlign=top;spacingLeft=4;spacingRight=4;overflow=hidden;rotatable=0;points=[[0,0.5],[1,0.5]];portConstraint=eastwest;whiteSpace=wrap;html=1;" vertex="1" parent="gTLsogeVvISidQ29SvgV-25">
          <mxGeometry y="60" width="160" height="26" as="geometry" />
        </mxCell>
        <mxCell id="gTLsogeVvISidQ29SvgV-29" value="Extends" style="endArrow=block;endSize=16;endFill=0;html=1;rounded=0;entryX=0.006;entryY=0.274;entryDx=0;entryDy=0;entryPerimeter=0;" edge="1" parent="1" target="gTLsogeVvISidQ29SvgV-2">
          <mxGeometry width="160" relative="1" as="geometry">
            <mxPoint x="200" y="310" as="sourcePoint" />
            <mxPoint x="190" y="310" as="targetPoint" />
            <Array as="points">
              <mxPoint x="190" y="310" />
              <mxPoint x="210" y="310" />
            </Array>
          </mxGeometry>
        </mxCell>
        <mxCell id="gTLsogeVvISidQ29SvgV-30" value="Classname" style="swimlane;fontStyle=1;align=center;verticalAlign=top;childLayout=stackLayout;horizontal=1;startSize=26;horizontalStack=0;resizeParent=1;resizeParentMax=0;resizeLast=0;collapsible=1;marginBottom=0;whiteSpace=wrap;html=1;" vertex="1" parent="1">
          <mxGeometry x="620" y="478" width="160" height="86" as="geometry" />
        </mxCell>
        <mxCell id="gTLsogeVvISidQ29SvgV-31" value="+ field: type" style="text;strokeColor=none;fillColor=none;align=left;verticalAlign=top;spacingLeft=4;spacingRight=4;overflow=hidden;rotatable=0;points=[[0,0.5],[1,0.5]];portConstraint=eastwest;whiteSpace=wrap;html=1;" vertex="1" parent="gTLsogeVvISidQ29SvgV-30">
          <mxGeometry y="26" width="160" height="26" as="geometry" />
        </mxCell>
        <mxCell id="gTLsogeVvISidQ29SvgV-32" value="" style="line;strokeWidth=1;fillColor=none;align=left;verticalAlign=middle;spacingTop=-1;spacingLeft=3;spacingRight=3;rotatable=0;labelPosition=right;points=[];portConstraint=eastwest;strokeColor=inherit;" vertex="1" parent="gTLsogeVvISidQ29SvgV-30">
          <mxGeometry y="52" width="160" height="8" as="geometry" />
        </mxCell>
        <mxCell id="gTLsogeVvISidQ29SvgV-33" value="+ method(type): type" style="text;strokeColor=none;fillColor=none;align=left;verticalAlign=top;spacingLeft=4;spacingRight=4;overflow=hidden;rotatable=0;points=[[0,0.5],[1,0.5]];portConstraint=eastwest;whiteSpace=wrap;html=1;" vertex="1" parent="gTLsogeVvISidQ29SvgV-30">
          <mxGeometry y="60" width="160" height="26" as="geometry" />
        </mxCell>
        <mxCell id="gTLsogeVvISidQ29SvgV-34" value="motos" style="swimlane;fontStyle=1;align=center;verticalAlign=top;childLayout=stackLayout;horizontal=1;startSize=26;horizontalStack=0;resizeParent=1;resizeParentMax=0;resizeLast=0;collapsible=1;marginBottom=0;whiteSpace=wrap;html=1;" vertex="1" parent="1">
          <mxGeometry x="30" y="300" width="160" height="86" as="geometry" />
        </mxCell>
        <mxCell id="gTLsogeVvISidQ29SvgV-35" value="+ NumerodeSerie:String" style="text;strokeColor=none;fillColor=none;align=left;verticalAlign=top;spacingLeft=4;spacingRight=4;overflow=hidden;rotatable=0;points=[[0,0.5],[1,0.5]];portConstraint=eastwest;whiteSpace=wrap;html=1;" vertex="1" parent="gTLsogeVvISidQ29SvgV-34">
          <mxGeometry y="26" width="160" height="26" as="geometry" />
        </mxCell>
        <mxCell id="gTLsogeVvISidQ29SvgV-36" value="" style="line;strokeWidth=1;fillColor=none;align=left;verticalAlign=middle;spacingTop=-1;spacingLeft=3;spacingRight=3;rotatable=0;labelPosition=right;points=[];portConstraint=eastwest;strokeColor=inherit;" vertex="1" parent="gTLsogeVvISidQ29SvgV-34">
          <mxGeometry y="52" width="160" height="8" as="geometry" />
        </mxCell>
        <mxCell id="gTLsogeVvISidQ29SvgV-37" value="+ Exibir" style="text;strokeColor=none;fillColor=none;align=left;verticalAlign=top;spacingLeft=4;spacingRight=4;overflow=hidden;rotatable=0;points=[[0,0.5],[1,0.5]];portConstraint=eastwest;whiteSpace=wrap;html=1;" vertex="1" parent="gTLsogeVvISidQ29SvgV-34">
          <mxGeometry y="60" width="160" height="26" as="geometry" />
        </mxCell>
      </root>
    </mxGraphModel>
  </diagram>
</mxfile>
